#N canvas 0 50 1532 791 10;
#X declare -path patchmenu;
#X obj 426 177 bng 15 250 50 0 empty empty empty 0 -6 0 8 -262144 -1
-1;
#X obj 606 136 bng 15 250 50 0 empty empty empty 0 -6 0 8 -262144 -1
-1;
#X obj 252 363 bng 15 250 50 0 empty empty empty 0 -6 0 8 -262144 -1
-1;
#X obj 251 429 *~;
#X obj 606 198 *~;
#X obj 425 238 *~;
#X obj 426 95 bng 15 250 50 0 empty bellbang1 empty 0 -6 0 8 -262144
-1 -1;
#X obj 426 145 metro;
#X obj 252 294 bng 15 250 50 0 empty bellbang3 empty 0 -6 0 8 -262144
-1 -1;
#X obj 252 331 metro;
#X floatatom 341 247 5 0 0 0 - belltime3 -, f 5;
#X obj 606 56 bng 15 250 50 0 empty bellbang2 empty 0 -6 0 8 -262144
-1 -1;
#X obj 606 111 metro;
#X obj 745 87 * 0.5;
#X obj 524 141 * 0.5;
#X floatatom 468 83 5 0 0 0 - belltime1 -, f 5;
#X floatatom 631 39 5 0 0 0 - belltime2 -, f 5;
#X obj 355 364 * 0.5;
#X obj 424 512 *~;
#N canvas 0 50 454 304 delay_guy 0;
#X obj 63 85 +~;
#X obj 232 18 inlet;
#X obj 63 226 delwrite~ delayloop 5000;
#X obj 232 53 delread~ delayloop 300;
#X obj 89 189 outlet~;
#X obj 63 19 inlet~;
#X obj 90 154 hip~;
#X obj 128 69 *~;
#X obj 141 18 inlet;
#X floatatom 141 46 5 0 0 0 - - -, f 5;
#X connect 0 0 2 0;
#X connect 0 0 6 0;
#X connect 1 0 3 0;
#X connect 3 0 7 0;
#X connect 5 0 0 0;
#X connect 6 0 4 0;
#X connect 7 0 0 1;
#X connect 8 0 9 0;
#X connect 9 0 7 1;
#X restore 425 544 pd delay_guy;
#X obj 426 443 +~;
#N canvas 0 50 683 507 -bell_control3~ 0;
#X msg 32 57 1079;
#X msg 91 57 12;
#X obj 33 133 vsl 15 100 0 1 0 0 empty fcrandom3 empty 0 -8 0 8 -262144
-1 -1 0 1;
#X obj 243 128 vsl 15 100 0 5000 0 0 empty a3 empty 0 -8 0 8 -262144
-1 -1 0 1;
#X obj 291 128 vsl 15 100 0 5000 0 0 empty d3 empty 0 -8 0 8 -262144
-1 -1 0 1;
#X obj 340 128 vsl 15 100 0 5000 0 0 empty r3 empty 0 -8 0 8 -262144
-1 -1 0 1;
#X text 223 107 A time;
#X text 281 107 D time;
#X text 332 107 R time;
#X obj 92 137 vsl 15 100 0 1 0 0 empty fmrandom3 empty 0 -8 0 8 -262144
-1 -1 0 1;
#X obj 149 133 vsl 15 100 0 1 0 0 empty irandom3 empty 0 -8 0 8 -262144
-1 -1 0 1;
#X floatatom 32 101 5 0 0 0 - - -, f 5;
#X floatatom 91 101 5 0 0 0 - - -, f 5;
#X floatatom 148 100 5 0 0 0 - - -, f 5;
#X text 28 80 Fc;
#X text 87 80 Fm;
#X text 147 79 I;
#X text 71 119 Randomness;
#X obj 21 437 outlet~;
#X obj 254 381 inlet;
#X text 253 358 Init;
#X text 295 357 Duration;
#X obj 296 381 inlet;
#N canvas 840 67 692 596 bell~ 0;
#X obj 24 59 inlet;
#X obj 82 60 inlet;
#X obj 140 61 inlet;
#X text 22 38 A time;
#X text 80 39 D time;
#X text 138 39 R time;
#X obj 199 60 inlet;
#X obj 244 59 inlet;
#X obj 286 59 inlet;
#X obj 340 60 inlet;
#X obj 398 59 inlet;
#X obj 450 60 inlet;
#X text 197 39 Fc;
#X text 242 38 Fm;
#X text 284 37 I;
#X text 295 37 (0-1);
#X text 384 41 Randomness;
#X obj 187 254 outlet~;
#X obj 495 59 inlet;
#X text 494 36 Init;
#X text 558 36 Duration;
#X obj 559 60 inlet;
#X msg 495 95 1;
#X obj 529 86 delay;
#X msg 529 117 0;
#N canvas 0 50 1532 791 random_fm~ 0;
#X floatatom 89 276 5 0 0 0 - - -, f 5;
#X floatatom 276 278 5 0 0 0 - - -, f 5;
#X obj 276 428 * 0.001;
#X floatatom 469 274 5 0 0 0 - - -, f 5;
#X obj 469 428 * 0.001;
#X obj 89 424 * 0.001;
#X obj 89 247 inlet;
#X obj 231 245 inlet;
#X obj 469 245 inlet;
#X obj 611 246 inlet;
#X text 165 261 How Random (0-1);
#X text 547 260 How Random (0-1);
#X text 353 261 How Random (0-1);
#X floatatom 231 278 5 0 0 0 - - -, f 5;
#X obj 276 246 inlet;
#X obj 418 245 inlet;
#X floatatom 418 275 5 0 0 0 - - -, f 5;
#X floatatom 611 276 5 0 0 0 - - -, f 5;
#X floatatom 89 389 5 0 0 0 - - -, f 5;
#X floatatom 276 390 5 0 0 0 - - -, f 5;
#X floatatom 469 393 5 0 0 0 - - -, f 5;
#X obj 247 503 outlet~;
#X obj 707 245 inlet;
#X text 708 226 Bang;
#N canvas 0 50 456 306 centered_random_bells 0;
#X floatatom 93 104 5 0 40000 0 - - -, f 5;
#X text 65 32 center freqency;
#X text 214 31 How Random;
#X obj 210 393 outlet;
#X obj 228 74 inlet;
#X obj 93 76 inlet;
#X obj 210 313 random;
#X floatatom 228 108 5 0 1 0 - - -, f 5;
#X obj 210 338 +;
#X obj 164 76 bng 15 250 50 0 empty empty empty 0 -6 0 8 -262144 -1
-1;
#X msg 180 98 1;
#X obj 180 122 -;
#X floatatom 180 147 5 0 0 0 - - -, f 5;
#X obj 93 230 * 2;
#X floatatom 93 259 5 0 0 0 - - -, f 5;
#X obj 164 172 *;
#X floatatom 164 200 5 0 0 0 - - -, f 5;
#X obj 148 272 -;
#X floatatom 148 299 5 0 0 0 - - -, f 5;
#X floatatom 210 366 5 0 0 0 - - -, f 5;
#X obj 164 225 * 2;
#X floatatom 164 251 5 0 0 0 - - -, f 5;
#X text 78 52 (anything);
#X text 227 52 (0-1);
#X text 194 416 Random Number;
#X obj 338 73 inlet;
#X text 309 29 New Value (bang);
#X connect 0 0 13 0;
#X connect 0 0 15 0;
#X connect 4 0 7 0;
#X connect 5 0 0 0;
#X connect 6 0 8 0;
#X connect 7 0 9 0;
#X connect 7 0 11 1;
#X connect 8 0 19 0;
#X connect 9 0 10 0;
#X connect 9 0 14 0;
#X connect 9 0 15 0;
#X connect 10 0 11 0;
#X connect 11 0 12 0;
#X connect 12 0 15 1;
#X connect 13 0 14 0;
#X connect 14 0 17 0;
#X connect 15 0 16 0;
#X connect 16 0 20 0;
#X connect 16 0 8 1;
#X connect 17 0 18 0;
#X connect 18 0 6 1;
#X connect 19 0 3 0;
#X connect 20 0 21 0;
#X connect 21 0 17 1;
#X connect 25 0 6 0;
#X restore 89 356 pd centered_random_bells;
#N canvas 0 50 452 302 centered_random_bells 0;
#X floatatom 93 104 5 0 40000 0 - - -, f 5;
#X text 65 32 center freqency;
#X text 214 31 How Random;
#X obj 210 393 outlet;
#X obj 228 74 inlet;
#X obj 93 76 inlet;
#X obj 210 313 random;
#X floatatom 228 108 5 0 1 0 - - -, f 5;
#X obj 210 338 +;
#X obj 164 76 bng 15 250 50 0 empty empty empty 0 -6 0 8 -262144 -1
-1;
#X msg 180 98 1;
#X obj 180 122 -;
#X floatatom 180 147 5 0 0 0 - - -, f 5;
#X obj 93 230 * 2;
#X floatatom 93 259 5 0 0 0 - - -, f 5;
#X obj 164 172 *;
#X floatatom 164 200 5 0 0 0 - - -, f 5;
#X obj 148 272 -;
#X floatatom 148 299 5 0 0 0 - - -, f 5;
#X floatatom 210 366 5 0 0 0 - - -, f 5;
#X obj 164 225 * 2;
#X floatatom 164 251 5 0 0 0 - - -, f 5;
#X text 78 52 (anything);
#X text 227 52 (0-1);
#X text 194 416 Random Number;
#X obj 338 73 inlet;
#X text 309 29 New Value (bang);
#X connect 0 0 13 0;
#X connect 0 0 15 0;
#X connect 4 0 7 0;
#X connect 5 0 0 0;
#X connect 6 0 8 0;
#X connect 7 0 9 0;
#X connect 7 0 11 1;
#X connect 8 0 19 0;
#X connect 9 0 10 0;
#X connect 9 0 14 0;
#X connect 9 0 15 0;
#X connect 10 0 11 0;
#X connect 11 0 12 0;
#X connect 12 0 15 1;
#X connect 13 0 14 0;
#X connect 14 0 17 0;
#X connect 15 0 16 0;
#X connect 16 0 20 0;
#X connect 16 0 8 1;
#X connect 17 0 18 0;
#X connect 18 0 6 1;
#X connect 19 0 3 0;
#X connect 20 0 21 0;
#X connect 21 0 17 1;
#X connect 25 0 6 0;
#X restore 276 355 pd centered_random_bells;
#N canvas 0 50 452 302 centered_random_bells 0;
#X floatatom 93 104 5 0 40000 0 - - -, f 5;
#X text 65 32 center freqency;
#X text 214 31 How Random;
#X obj 210 393 outlet;
#X obj 228 74 inlet;
#X obj 93 76 inlet;
#X obj 210 313 random;
#X floatatom 228 108 5 0 1 0 - - -, f 5;
#X obj 210 338 +;
#X obj 164 76 bng 15 250 50 0 empty empty empty 0 -6 0 8 -262144 -1
-1;
#X msg 180 98 1;
#X obj 180 122 -;
#X floatatom 180 147 5 0 0 0 - - -, f 5;
#X obj 93 230 * 2;
#X floatatom 93 259 5 0 0 0 - - -, f 5;
#X obj 164 172 *;
#X floatatom 164 200 5 0 0 0 - - -, f 5;
#X obj 148 272 -;
#X floatatom 148 299 5 0 0 0 - - -, f 5;
#X floatatom 210 366 5 0 0 0 - - -, f 5;
#X obj 164 225 * 2;
#X floatatom 164 251 5 0 0 0 - - -, f 5;
#X text 78 52 (anything);
#X text 227 52 (0-1);
#X text 194 416 Random Number;
#X obj 338 73 inlet;
#X text 309 29 New Value (bang);
#X connect 0 0 13 0;
#X connect 0 0 15 0;
#X connect 4 0 7 0;
#X connect 5 0 0 0;
#X connect 6 0 8 0;
#X connect 7 0 9 0;
#X connect 7 0 11 1;
#X connect 8 0 19 0;
#X connect 9 0 10 0;
#X connect 9 0 14 0;
#X connect 9 0 15 0;
#X connect 10 0 11 0;
#X connect 11 0 12 0;
#X connect 12 0 15 1;
#X connect 13 0 14 0;
#X connect 14 0 17 0;
#X connect 15 0 16 0;
#X connect 16 0 20 0;
#X connect 16 0 8 1;
#X connect 17 0 18 0;
#X connect 18 0 6 1;
#X connect 19 0 3 0;
#X connect 20 0 21 0;
#X connect 21 0 17 1;
#X connect 25 0 6 0;
#X restore 469 355 pd centered_random_bells;
#N canvas 597 342 456 306 fm_synth~ 0;
#X obj 59 122 osc~;
#X obj 11 122 sig~;
#X floatatom 11 54 5 0 0 0 - - -, f 5;
#X floatatom 59 54 5 0 0 0 - - -, f 5;
#X obj 12 187 osc~;
#X obj 12 163 +~;
#X obj 59 147 *~;
#X floatatom 107 54 5 0 0 0 - - -, f 5;
#X text 16 12 Fc;
#X text 62 12 Fm;
#X obj 11 76 * 1000;
#X obj 59 76 * 1000;
#X text 107 12 Imod;
#X text 159 12 All (0-1);
#X floatatom 11 101 5 0 0 0 - - -, f 5;
#X floatatom 59 101 5 0 0 0 - - -, f 5;
#X floatatom 107 101 5 0 0 0 - - -, f 5;
#X obj 12 211 outlet~;
#X obj 11 29 inlet;
#X obj 59 29 inlet;
#X obj 107 29 inlet;
#X obj 107 76 * 1000;
#X connect 0 0 6 0;
#X connect 1 0 5 0;
#X connect 2 0 10 0;
#X connect 3 0 11 0;
#X connect 4 0 17 0;
#X connect 5 0 4 0;
#X connect 6 0 5 1;
#X connect 7 0 21 0;
#X connect 10 0 14 0;
#X connect 11 0 15 0;
#X connect 14 0 1 0;
#X connect 15 0 0 0;
#X connect 16 0 6 1;
#X connect 18 0 2 0;
#X connect 19 0 3 0;
#X connect 20 0 7 0;
#X connect 21 0 16 0;
#X restore 243 466 pd fm_synth~;
#X text 276 226 Frequency (0-1);
#X text 86 227 Frequency (0-1);
#X text 462 225 Frequency (0-1);
#X obj 93 24 r notes;
#X obj 93 50 unpack;
#X obj 93 97 pack 0 0 0;
#X obj 93 75 poly 3;
#X obj 93 122 route 1 2 3, f 34;
#X obj 93 151 stripnote;
#X obj 92 175 mtof;
#X obj 170 152 stripnote;
#X obj 169 176 mtof;
#X obj 246 153 stripnote;
#X obj 245 177 mtof;
#X connect 0 0 24 0;
#X connect 1 0 25 0;
#X connect 2 0 27 1;
#X connect 3 0 26 0;
#X connect 4 0 27 2;
#X connect 5 0 27 0;
#X connect 6 0 0 0;
#X connect 7 0 13 0;
#X connect 8 0 3 0;
#X connect 9 0 17 0;
#X connect 13 0 24 1;
#X connect 14 0 1 0;
#X connect 15 0 16 0;
#X connect 16 0 25 1;
#X connect 17 0 26 1;
#X connect 18 0 5 0;
#X connect 19 0 2 0;
#X connect 20 0 4 0;
#X connect 22 0 24 2;
#X connect 22 0 25 2;
#X connect 22 0 26 2;
#X connect 24 0 18 0;
#X connect 25 0 19 0;
#X connect 26 0 20 0;
#X connect 27 0 21 0;
#X connect 31 0 32 0;
#X connect 32 0 34 0;
#X connect 32 1 34 1;
#X connect 33 0 35 0;
#X connect 34 0 33 0;
#X connect 34 1 33 1;
#X connect 34 2 33 2;
#X connect 35 0 36 0;
#X connect 35 1 38 0;
#X connect 35 2 40 0;
#X connect 36 0 37 0;
#X connect 37 0 0 0;
#X connect 38 0 39 0;
#X connect 39 0 1 0;
#X connect 40 0 41 0;
#X connect 41 0 3 0;
#X restore 199 180 pd random_fm~;
#X obj 186 213 *~;
#N canvas 0 50 879 629 adsr______ 0;
#X obj 205 119 inlet;
#X obj 412 147 inlet;
#X text 201 94 trigger;
#X obj 205 147 sel 0;
#X obj 258 157 t b;
#X obj 134 335 f \$1;
#X obj 134 360 pack 0 \$2;
#X obj 476 148 inlet;
#X obj 403 281 del \$2;
#X obj 432 304 f \$4;
#X obj 466 379 pack 0 \$3;
#X obj 537 149 inlet;
#X obj 605 149 inlet;
#X obj 678 148 inlet;
#X msg 205 178 stop;
#X obj 576 301 pack 0 \$5;
#X text 410 124 level;
#X obj 466 355 * \$1;
#X text 31 306 ATTACK;
#X text 6 329 recall level;
#X text 6 349 and pack with;
#X text 7 369 attack time;
#X text 131 134 if zero;
#X text 132 151 release;
#X text 112 168 and cancel;
#X text 143 185 decay;
#X text 262 139 bang if attack;
#X text 245 272 on attack \, set a;
#X text 200 286 delay to go to sustain;
#X text 242 303 recall sustain value;
#X text 237 354 multiply by overall level;
#X text 281 375 pack with decay time;
#X text 569 327 on release ramp;
#X text 570 344 back to zero;
#X text 17 487 When you send this patch a nonzero trigger it schedules
a line~ to do an attack and decay \, and if zero \, it starts the release
ramp.;
#X obj 432 329 * 0.01;
#X text 16 539 Objects such as "f" and "pack" can be given dollar sign
arguments to initialize their contents from adsr's creation arguments.
Inlets are supplied to change them on the fly.;
#X text 505 613 Updated for Pd version 0.34;
#X text 86 4 ADSR ENVELOPE;
#X text 245 327 convert from percent;
#X text 76 24 Arguments: level \, attack time \, decay time \, sustain
level \, release time. A \, D \, and R are in msec and S is in percent.
This patch is used as an abstraction in 25.envelope.pd and others.
;
#X text 472 127 attack;
#X text 538 126 decay;
#X text 598 127 sustain;
#X text 675 127 release;
#X obj 458 429 line~;
#X obj 458 454 outlet~;
#X connect 0 0 3 0;
#X connect 1 0 5 1;
#X connect 1 0 17 1;
#X connect 3 0 14 0;
#X connect 3 0 15 0;
#X connect 3 1 4 0;
#X connect 4 0 5 0;
#X connect 4 0 8 0;
#X connect 5 0 6 0;
#X connect 6 0 45 0;
#X connect 7 0 6 1;
#X connect 7 0 8 1;
#X connect 8 0 9 0;
#X connect 9 0 35 0;
#X connect 10 0 45 0;
#X connect 11 0 10 1;
#X connect 12 0 9 1;
#X connect 13 0 15 1;
#X connect 14 0 8 0;
#X connect 15 0 45 0;
#X connect 17 0 10 0;
#X connect 35 0 17 0;
#X connect 45 0 46 0;
#X restore 43 164 pd adsr______;
#X msg 57 134 1;
#X msg 101 135 0.7;
#X obj 57 102 loadbang;
#X connect 0 0 27 2;
#X connect 1 0 27 3;
#X connect 2 0 27 5;
#X connect 6 0 25 0;
#X connect 7 0 25 2;
#X connect 8 0 25 4;
#X connect 9 0 25 1;
#X connect 10 0 25 3;
#X connect 11 0 25 5;
#X connect 18 0 22 0;
#X connect 18 0 25 6;
#X connect 21 0 23 1;
#X connect 22 0 27 0;
#X connect 23 0 24 0;
#X connect 24 0 27 0;
#X connect 25 0 26 1;
#X connect 26 0 17 0;
#X connect 27 0 26 0;
#X connect 28 0 27 1;
#X connect 29 0 27 4;
#X connect 30 0 28 0;
#X connect 30 0 29 0;
#X restore 21 407 pd bell~ 100 100 100 500 250 0.5 0.5 0.3 0.7;
#X obj 91 21 loadbang;
#X text 271 71 bell Envelope;
#X msg 148 55 150;
#X connect 0 0 11 0;
#X connect 1 0 12 0;
#X connect 2 0 23 6;
#X connect 3 0 23 0;
#X connect 4 0 23 1;
#X connect 5 0 23 2;
#X connect 9 0 23 7;
#X connect 10 0 23 8;
#X connect 11 0 23 3;
#X connect 12 0 23 4;
#X connect 13 0 23 5;
#X connect 19 0 23 9;
#X connect 22 0 23 10;
#X connect 23 0 18 0;
#X connect 24 0 1 0;
#X connect 24 0 26 0;
#X connect 24 0 0 0;
#X connect 26 0 13 0;
#X restore 252 389 pd -bell_control3~;
#N canvas 830 84 678 533 -bell_control2~ 0;
#X msg 32 60 1079;
#X msg 91 61 8;
#X msg 148 59 78;
#X obj 33 133 vsl 15 100 0 1 0 0 empty fcrandom2 empty 0 -8 0 8 -262144
-1 -1 0 1;
#X obj 243 128 vsl 15 100 0 5000 0 0 empty a2 empty 0 -8 0 8 -262144
-1 -1 2 1;
#X obj 291 128 vsl 15 100 0 5000 0 0 empty d2 empty 0 -8 0 8 -262144
-1 -1 79 1;
#X obj 340 128 vsl 15 100 0 5000 0 0 empty r2 empty 0 -8 0 8 -262144
-1 -1 22 1;
#X text 223 107 A time;
#X text 281 107 D time;
#X text 332 107 R time;
#X obj 92 137 vsl 15 100 0 1 0 0 empty fmrandom2 empty 0 -8 0 8 -262144
-1 -1 0 1;
#X obj 149 133 vsl 15 100 0 1 0 0 empty irandom2 empty 0 -8 0 8 -262144
-1 -1 0 1;
#X floatatom 32 101 5 0 0 0 - - -, f 5;
#X floatatom 91 101 5 0 0 0 - - -, f 5;
#X floatatom 148 100 5 0 0 0 - - -, f 5;
#X text 28 80 Fc;
#X text 87 80 Fm;
#X text 147 79 I;
#X text 71 119 Randomness;
#X obj 21 437 outlet~;
#X obj 288 321 inlet;
#X text 285 298 Init;
#X text 327 297 Duration;
#X obj 328 321 inlet;
#N canvas 106 50 798 344 bell~ 0;
#X obj 24 59 inlet;
#X obj 82 60 inlet;
#X obj 140 61 inlet;
#X text 22 38 A time;
#X text 80 39 D time;
#X text 138 39 R time;
#X obj 199 60 inlet;
#X obj 244 59 inlet;
#X obj 286 59 inlet;
#X obj 340 60 inlet;
#X obj 398 59 inlet;
#X obj 450 60 inlet;
#X text 197 39 Fc;
#X text 242 38 Fm;
#X text 284 37 I;
#X text 295 37 (0-1);
#X text 384 41 Randomness;
#X obj 187 254 outlet~;
#X obj 495 59 inlet;
#X text 494 36 Init;
#X text 558 36 Duration;
#X obj 559 60 inlet;
#X msg 495 95 1;
#X obj 529 86 delay;
#X msg 529 117 0;
#N canvas 0 50 766 456 random_fm~ 0;
#X floatatom 53 84 5 0 0 0 - - -, f 5;
#X floatatom 240 86 5 0 0 0 - - -, f 5;
#X obj 240 236 * 0.001;
#X floatatom 433 82 5 0 0 0 - - -, f 5;
#X obj 433 236 * 0.001;
#X obj 53 232 * 0.001;
#X obj 53 55 inlet;
#X obj 195 53 inlet;
#X obj 433 53 inlet;
#X obj 575 54 inlet;
#X text 129 69 How Random (0-1);
#X text 511 68 How Random (0-1);
#X text 317 69 How Random (0-1);
#X floatatom 195 86 5 0 0 0 - - -, f 5;
#X obj 240 54 inlet;
#X obj 382 53 inlet;
#X floatatom 382 83 5 0 0 0 - - -, f 5;
#X floatatom 575 84 5 0 0 0 - - -, f 5;
#X floatatom 53 197 5 0 0 0 - - -, f 5;
#X floatatom 240 198 5 0 0 0 - - -, f 5;
#X floatatom 433 201 5 0 0 0 - - -, f 5;
#X obj 211 311 outlet~;
#X obj 671 53 inlet;
#X text 672 34 Bang;
#N canvas 0 50 456 306 centered_random_bells 0;
#X floatatom 93 104 5 0 40000 0 - - -, f 5;
#X text 65 32 center freqency;
#X text 214 31 How Random;
#X obj 210 393 outlet;
#X obj 228 74 inlet;
#X obj 93 76 inlet;
#X obj 210 313 random;
#X floatatom 228 108 5 0 1 0 - - -, f 5;
#X obj 210 338 +;
#X obj 164 76 bng 15 250 50 0 empty empty empty 0 -6 0 8 -262144 -1
-1;
#X msg 180 98 1;
#X obj 180 122 -;
#X floatatom 180 147 5 0 0 0 - - -, f 5;
#X obj 93 230 * 2;
#X floatatom 93 259 5 0 0 0 - - -, f 5;
#X obj 164 172 *;
#X floatatom 164 200 5 0 0 0 - - -, f 5;
#X obj 148 272 -;
#X floatatom 148 299 5 0 0 0 - - -, f 5;
#X floatatom 210 366 5 0 0 0 - - -, f 5;
#X obj 164 225 * 2;
#X floatatom 164 251 5 0 0 0 - - -, f 5;
#X text 78 52 (anything);
#X text 227 52 (0-1);
#X text 194 416 Random Number;
#X obj 338 73 inlet;
#X text 309 29 New Value (bang);
#X connect 0 0 13 0;
#X connect 0 0 15 0;
#X connect 4 0 7 0;
#X connect 5 0 0 0;
#X connect 6 0 8 0;
#X connect 7 0 9 0;
#X connect 7 0 11 1;
#X connect 8 0 19 0;
#X connect 9 0 10 0;
#X connect 9 0 14 0;
#X connect 9 0 15 0;
#X connect 10 0 11 0;
#X connect 11 0 12 0;
#X connect 12 0 15 1;
#X connect 13 0 14 0;
#X connect 14 0 17 0;
#X connect 15 0 16 0;
#X connect 16 0 20 0;
#X connect 16 0 8 1;
#X connect 17 0 18 0;
#X connect 18 0 6 1;
#X connect 19 0 3 0;
#X connect 20 0 21 0;
#X connect 21 0 17 1;
#X connect 25 0 6 0;
#X restore 53 164 pd centered_random_bells;
#N canvas 0 50 452 302 centered_random_bells 0;
#X floatatom 93 104 5 0 40000 0 - - -, f 5;
#X text 65 32 center freqency;
#X text 214 31 How Random;
#X obj 210 393 outlet;
#X obj 228 74 inlet;
#X obj 93 76 inlet;
#X obj 210 313 random;
#X floatatom 228 108 5 0 1 0 - - -, f 5;
#X obj 210 338 +;
#X obj 164 76 bng 15 250 50 0 empty empty empty 0 -6 0 8 -262144 -1
-1;
#X msg 180 98 1;
#X obj 180 122 -;
#X floatatom 180 147 5 0 0 0 - - -, f 5;
#X obj 93 230 * 2;
#X floatatom 93 259 5 0 0 0 - - -, f 5;
#X obj 164 172 *;
#X floatatom 164 200 5 0 0 0 - - -, f 5;
#X obj 148 272 -;
#X floatatom 148 299 5 0 0 0 - - -, f 5;
#X floatatom 210 366 5 0 0 0 - - -, f 5;
#X obj 164 225 * 2;
#X floatatom 164 251 5 0 0 0 - - -, f 5;
#X text 78 52 (anything);
#X text 227 52 (0-1);
#X text 194 416 Random Number;
#X obj 338 73 inlet;
#X text 309 29 New Value (bang);
#X connect 0 0 13 0;
#X connect 0 0 15 0;
#X connect 4 0 7 0;
#X connect 5 0 0 0;
#X connect 6 0 8 0;
#X connect 7 0 9 0;
#X connect 7 0 11 1;
#X connect 8 0 19 0;
#X connect 9 0 10 0;
#X connect 9 0 14 0;
#X connect 9 0 15 0;
#X connect 10 0 11 0;
#X connect 11 0 12 0;
#X connect 12 0 15 1;
#X connect 13 0 14 0;
#X connect 14 0 17 0;
#X connect 15 0 16 0;
#X connect 16 0 20 0;
#X connect 16 0 8 1;
#X connect 17 0 18 0;
#X connect 18 0 6 1;
#X connect 19 0 3 0;
#X connect 20 0 21 0;
#X connect 21 0 17 1;
#X connect 25 0 6 0;
#X restore 240 163 pd centered_random_bells;
#N canvas 0 50 452 302 centered_random_bells 0;
#X floatatom 93 104 5 0 40000 0 - - -, f 5;
#X text 65 32 center freqency;
#X text 214 31 How Random;
#X obj 210 393 outlet;
#X obj 228 74 inlet;
#X obj 93 76 inlet;
#X obj 210 313 random;
#X floatatom 228 108 5 0 1 0 - - -, f 5;
#X obj 210 338 +;
#X obj 164 76 bng 15 250 50 0 empty empty empty 0 -6 0 8 -262144 -1
-1;
#X msg 180 98 1;
#X obj 180 122 -;
#X floatatom 180 147 5 0 0 0 - - -, f 5;
#X obj 93 230 * 2;
#X floatatom 93 259 5 0 0 0 - - -, f 5;
#X obj 164 172 *;
#X floatatom 164 200 5 0 0 0 - - -, f 5;
#X obj 148 272 -;
#X floatatom 148 299 5 0 0 0 - - -, f 5;
#X floatatom 210 366 5 0 0 0 - - -, f 5;
#X obj 164 225 * 2;
#X floatatom 164 251 5 0 0 0 - - -, f 5;
#X text 78 52 (anything);
#X text 227 52 (0-1);
#X text 194 416 Random Number;
#X obj 338 73 inlet;
#X text 309 29 New Value (bang);
#X connect 0 0 13 0;
#X connect 0 0 15 0;
#X connect 4 0 7 0;
#X connect 5 0 0 0;
#X connect 6 0 8 0;
#X connect 7 0 9 0;
#X connect 7 0 11 1;
#X connect 8 0 19 0;
#X connect 9 0 10 0;
#X connect 9 0 14 0;
#X connect 9 0 15 0;
#X connect 10 0 11 0;
#X connect 11 0 12 0;
#X connect 12 0 15 1;
#X connect 13 0 14 0;
#X connect 14 0 17 0;
#X connect 15 0 16 0;
#X connect 16 0 20 0;
#X connect 16 0 8 1;
#X connect 17 0 18 0;
#X connect 18 0 6 1;
#X connect 19 0 3 0;
#X connect 20 0 21 0;
#X connect 21 0 17 1;
#X connect 25 0 6 0;
#X restore 433 163 pd centered_random_bells;
#N canvas 0 50 456 306 fm_synth~ 0;
#X obj 59 122 osc~;
#X obj 11 122 sig~;
#X floatatom 11 54 5 0 0 0 - - -, f 5;
#X floatatom 59 54 5 0 0 0 - - -, f 5;
#X obj 12 187 osc~;
#X obj 12 163 +~;
#X obj 59 147 *~;
#X floatatom 107 54 5 0 0 0 - - -, f 5;
#X text 16 12 Fc;
#X text 62 12 Fm;
#X obj 11 76 * 1000;
#X obj 59 76 * 1000;
#X text 107 12 Imod;
#X text 159 12 All (0-1);
#X floatatom 11 101 5 0 0 0 - - -, f 5;
#X floatatom 59 101 5 0 0 0 - - -, f 5;
#X floatatom 107 101 5 0 0 0 - - -, f 5;
#X obj 12 211 outlet~;
#X obj 11 29 inlet;
#X obj 59 29 inlet;
#X obj 107 29 inlet;
#X obj 107 76 * 1000;
#X connect 0 0 6 0;
#X connect 1 0 5 0;
#X connect 2 0 10 0;
#X connect 3 0 11 0;
#X connect 4 0 17 0;
#X connect 5 0 4 0;
#X connect 6 0 5 1;
#X connect 7 0 21 0;
#X connect 10 0 14 0;
#X connect 11 0 15 0;
#X connect 14 0 1 0;
#X connect 15 0 0 0;
#X connect 16 0 6 1;
#X connect 18 0 2 0;
#X connect 19 0 3 0;
#X connect 20 0 7 0;
#X connect 21 0 16 0;
#X restore 207 274 pd fm_synth~;
#X text 240 34 Frequency (0-1);
#X text 50 35 Frequency (0-1);
#X text 426 33 Frequency (0-1);
#X connect 0 0 24 0;
#X connect 1 0 25 0;
#X connect 2 0 27 1;
#X connect 3 0 26 0;
#X connect 4 0 27 2;
#X connect 5 0 27 0;
#X connect 6 0 0 0;
#X connect 7 0 13 0;
#X connect 8 0 3 0;
#X connect 9 0 17 0;
#X connect 13 0 24 1;
#X connect 14 0 1 0;
#X connect 15 0 16 0;
#X connect 16 0 25 1;
#X connect 17 0 26 1;
#X connect 18 0 5 0;
#X connect 19 0 2 0;
#X connect 20 0 4 0;
#X connect 22 0 24 2;
#X connect 22 0 25 2;
#X connect 22 0 26 2;
#X connect 24 0 18 0;
#X connect 25 0 19 0;
#X connect 26 0 20 0;
#X connect 27 0 21 0;
#X restore 199 180 pd random_fm~;
#X obj 186 213 *~;
#N canvas 0 50 879 629 adsr______ 0;
#X obj 205 119 inlet;
#X obj 412 147 inlet;
#X text 201 94 trigger;
#X obj 205 147 sel 0;
#X obj 258 157 t b;
#X obj 134 335 f \$1;
#X obj 134 360 pack 0 \$2;
#X obj 476 148 inlet;
#X obj 403 281 del \$2;
#X obj 432 304 f \$4;
#X obj 466 379 pack 0 \$3;
#X obj 537 149 inlet;
#X obj 605 149 inlet;
#X obj 678 148 inlet;
#X msg 205 178 stop;
#X obj 576 301 pack 0 \$5;
#X text 410 124 level;
#X obj 466 355 * \$1;
#X text 31 306 ATTACK;
#X text 6 329 recall level;
#X text 6 349 and pack with;
#X text 7 369 attack time;
#X text 131 134 if zero;
#X text 132 151 release;
#X text 112 168 and cancel;
#X text 143 185 decay;
#X text 262 139 bang if attack;
#X text 245 272 on attack \, set a;
#X text 200 286 delay to go to sustain;
#X text 242 303 recall sustain value;
#X text 237 354 multiply by overall level;
#X text 281 375 pack with decay time;
#X text 569 327 on release ramp;
#X text 570 344 back to zero;
#X text 17 487 When you send this patch a nonzero trigger it schedules
a line~ to do an attack and decay \, and if zero \, it starts the release
ramp.;
#X obj 432 329 * 0.01;
#X text 16 539 Objects such as "f" and "pack" can be given dollar sign
arguments to initialize their contents from adsr's creation arguments.
Inlets are supplied to change them on the fly.;
#X text 505 613 Updated for Pd version 0.34;
#X text 86 4 ADSR ENVELOPE;
#X text 245 327 convert from percent;
#X text 76 24 Arguments: level \, attack time \, decay time \, sustain
level \, release time. A \, D \, and R are in msec and S is in percent.
This patch is used as an abstraction in 25.envelope.pd and others.
;
#X text 472 127 attack;
#X text 538 126 decay;
#X text 598 127 sustain;
#X text 675 127 release;
#X obj 458 429 line~;
#X obj 458 454 outlet~;
#X connect 0 0 3 0;
#X connect 1 0 5 1;
#X connect 1 0 17 1;
#X connect 3 0 14 0;
#X connect 3 0 15 0;
#X connect 3 1 4 0;
#X connect 4 0 5 0;
#X connect 4 0 8 0;
#X connect 5 0 6 0;
#X connect 6 0 45 0;
#X connect 7 0 6 1;
#X connect 7 0 8 1;
#X connect 8 0 9 0;
#X connect 9 0 35 0;
#X connect 10 0 45 0;
#X connect 11 0 10 1;
#X connect 12 0 9 1;
#X connect 13 0 15 1;
#X connect 14 0 8 0;
#X connect 15 0 45 0;
#X connect 17 0 10 0;
#X connect 35 0 17 0;
#X connect 45 0 46 0;
#X restore 43 164 pd adsr______;
#X msg 57 134 1;
#X msg 101 135 0.7;
#X obj 57 102 loadbang;
#X msg 39 244 20;
#X msg 89 268 30;
#X msg 149 306 40;
#X connect 0 0 27 2;
#X connect 1 0 27 3;
#X connect 2 0 27 5;
#X connect 6 0 25 0;
#X connect 7 0 25 2;
#X connect 8 0 25 4;
#X connect 9 0 25 1;
#X connect 10 0 25 3;
#X connect 11 0 25 5;
#X connect 18 0 22 0;
#X connect 18 0 25 6;
#X connect 21 0 23 1;
#X connect 22 0 27 0;
#X connect 23 0 24 0;
#X connect 24 0 27 0;
#X connect 25 0 26 1;
#X connect 26 0 17 0;
#X connect 27 0 26 0;
#X connect 28 0 27 1;
#X connect 29 0 27 4;
#X connect 30 0 28 0;
#X connect 30 0 29 0;
#X connect 31 0 27 2;
#X connect 32 0 27 3;
#X connect 33 0 27 5;
#X restore 21 407 pd bell~ 100 100 100 500 250 0.5 0.5 0.3 0.7;
#X obj 91 21 loadbang;
#X text 396 164 bell Envelope;
#X obj 265 11 loadbang;
#X msg 243 64 1;
#X msg 287 66 40;
#X msg 344 64 11;
#X obj 388 320 loadbang;
#X msg 385 346 0.9;
#X obj 460 320 loadbang;
#X msg 457 346 20;
#X connect 0 0 12 0;
#X connect 1 0 13 0;
#X connect 2 0 14 0;
#X connect 3 0 24 6;
#X connect 4 0 24 0;
#X connect 5 0 24 1;
#X connect 6 0 24 2;
#X connect 10 0 24 7;
#X connect 11 0 24 8;
#X connect 12 0 24 3;
#X connect 13 0 24 4;
#X connect 14 0 24 5;
#X connect 20 0 24 9;
#X connect 23 0 24 10;
#X connect 24 0 19 0;
#X connect 25 0 1 0;
#X connect 25 0 0 0;
#X connect 25 0 2 0;
#X connect 27 0 28 0;
#X connect 27 0 29 0;
#X connect 27 0 30 0;
#X connect 28 0 4 0;
#X connect 29 0 5 0;
#X connect 30 0 6 0;
#X connect 31 0 32 0;
#X connect 32 0 24 9;
#X connect 33 0 34 0;
#X connect 34 0 24 10;
#X restore 606 161 pd -bell_control2~;
#N canvas 66 50 774 614 -bell_control1~ 0;
#X obj 33 133 vsl 15 100 0 1 0 0 empty fcrandom1 empty 0 -8 0 8 -262144
-1 -1 0 1;
#X obj 243 128 vsl 15 100 0 5000 0 0 empty a1 empty 0 -8 0 8 -262144
-1 -1 198 1;
#X obj 291 128 vsl 15 100 0 5000 0 0 empty d1 empty 0 -8 0 8 -262144
-1 -1 20 1;
#X obj 340 128 vsl 15 100 0 5000 0 0 empty r1 empty 0 -8 0 8 -262144
-1 -1 396 1;
#X text 223 107 A time;
#X text 281 107 D time;
#X text 332 107 R time;
#X obj 92 137 vsl 15 100 0 1 0 0 empty fmrandom1 empty 0 -8 0 8 -262144
-1 -1 0 1;
#X obj 149 133 vsl 15 100 0 1 0 0 empty irandom1 empty 0 -8 0 8 -262144
-1 -1 0 1;
#X floatatom 32 101 5 0 0 0 - - -, f 5;
#X floatatom 91 101 5 0 0 0 - - -, f 5;
#X floatatom 148 100 5 0 0 0 - - -, f 5;
#X text 28 80 Fc;
#X text 87 80 Fm;
#X text 147 79 I;
#X text 71 119 Randomness;
#X obj 21 437 outlet~;
#X obj 254 381 inlet;
#X text 253 358 Init;
#X text 295 357 Duration;
#X obj 296 381 inlet;
#X msg 147 59 11;
#X msg 32 57 767;
#X msg 91 58 10;
#N canvas 106 50 794 340 bell~ 0;
#X obj 24 59 inlet;
#X obj 82 60 inlet;
#X obj 140 61 inlet;
#X text 22 38 A time;
#X text 80 39 D time;
#X text 138 39 R time;
#X obj 199 60 inlet;
#X obj 244 59 inlet;
#X obj 286 59 inlet;
#X obj 340 60 inlet;
#X obj 398 59 inlet;
#X obj 450 60 inlet;
#X text 197 39 Fc;
#X text 242 38 Fm;
#X text 284 37 I;
#X text 295 37 (0-1);
#X text 384 41 Randomness;
#X obj 187 254 outlet~;
#X obj 495 59 inlet;
#X text 494 36 Init;
#X text 558 36 Duration;
#X obj 559 60 inlet;
#X msg 495 95 1;
#X obj 529 86 delay;
#X msg 529 117 0;
#N canvas 151 325 766 456 random_fm~ 0;
#X floatatom 53 84 5 0 0 0 - - -, f 5;
#X floatatom 240 86 5 0 0 0 - - -, f 5;
#X obj 240 236 * 0.001;
#X floatatom 433 82 5 0 0 0 - - -, f 5;
#X obj 433 236 * 0.001;
#X obj 53 232 * 0.001;
#X obj 53 55 inlet;
#X obj 195 53 inlet;
#X obj 433 53 inlet;
#X obj 575 54 inlet;
#X text 129 69 How Random (0-1);
#X text 511 68 How Random (0-1);
#X text 317 69 How Random (0-1);
#X floatatom 195 86 5 0 0 0 - - -, f 5;
#X obj 240 54 inlet;
#X obj 382 53 inlet;
#X floatatom 382 83 5 0 0 0 - - -, f 5;
#X floatatom 575 84 5 0 0 0 - - -, f 5;
#X floatatom 53 197 5 0 0 0 - - -, f 5;
#X floatatom 240 198 5 0 0 0 - - -, f 5;
#X floatatom 433 201 5 0 0 0 - - -, f 5;
#X obj 211 311 outlet~;
#X obj 671 53 inlet;
#X text 672 34 Bang;
#N canvas 0 50 456 306 centered_random_bells 0;
#X floatatom 93 104 5 0 40000 0 - - -, f 5;
#X text 65 32 center freqency;
#X text 214 31 How Random;
#X obj 210 393 outlet;
#X obj 228 74 inlet;
#X obj 93 76 inlet;
#X obj 210 313 random;
#X floatatom 228 108 5 0 1 0 - - -, f 5;
#X obj 210 338 +;
#X obj 164 76 bng 15 250 50 0 empty empty empty 0 -6 0 8 -262144 -1
-1;
#X msg 180 98 1;
#X obj 180 122 -;
#X floatatom 180 147 5 0 0 0 - - -, f 5;
#X obj 93 230 * 2;
#X floatatom 93 259 5 0 0 0 - - -, f 5;
#X obj 164 172 *;
#X floatatom 164 200 5 0 0 0 - - -, f 5;
#X obj 148 272 -;
#X floatatom 148 299 5 0 0 0 - - -, f 5;
#X floatatom 210 366 5 0 0 0 - - -, f 5;
#X obj 164 225 * 2;
#X floatatom 164 251 5 0 0 0 - - -, f 5;
#X text 78 52 (anything);
#X text 227 52 (0-1);
#X text 194 416 Random Number;
#X obj 338 73 inlet;
#X text 309 29 New Value (bang);
#X connect 0 0 13 0;
#X connect 0 0 15 0;
#X connect 4 0 7 0;
#X connect 5 0 0 0;
#X connect 6 0 8 0;
#X connect 7 0 9 0;
#X connect 7 0 11 1;
#X connect 8 0 19 0;
#X connect 9 0 10 0;
#X connect 9 0 14 0;
#X connect 9 0 15 0;
#X connect 10 0 11 0;
#X connect 11 0 12 0;
#X connect 12 0 15 1;
#X connect 13 0 14 0;
#X connect 14 0 17 0;
#X connect 15 0 16 0;
#X connect 16 0 20 0;
#X connect 16 0 8 1;
#X connect 17 0 18 0;
#X connect 18 0 6 1;
#X connect 19 0 3 0;
#X connect 20 0 21 0;
#X connect 21 0 17 1;
#X connect 25 0 6 0;
#X restore 53 164 pd centered_random_bells;
#N canvas 0 50 452 302 centered_random_bells 0;
#X floatatom 93 104 5 0 40000 0 - - -, f 5;
#X text 65 32 center freqency;
#X text 214 31 How Random;
#X obj 210 393 outlet;
#X obj 228 74 inlet;
#X obj 93 76 inlet;
#X obj 210 313 random;
#X floatatom 228 108 5 0 1 0 - - -, f 5;
#X obj 210 338 +;
#X obj 164 76 bng 15 250 50 0 empty empty empty 0 -6 0 8 -262144 -1
-1;
#X msg 180 98 1;
#X obj 180 122 -;
#X floatatom 180 147 5 0 0 0 - - -, f 5;
#X obj 93 230 * 2;
#X floatatom 93 259 5 0 0 0 - - -, f 5;
#X obj 164 172 *;
#X floatatom 164 200 5 0 0 0 - - -, f 5;
#X obj 148 272 -;
#X floatatom 148 299 5 0 0 0 - - -, f 5;
#X floatatom 210 366 5 0 0 0 - - -, f 5;
#X obj 164 225 * 2;
#X floatatom 164 251 5 0 0 0 - - -, f 5;
#X text 78 52 (anything);
#X text 227 52 (0-1);
#X text 194 416 Random Number;
#X obj 338 73 inlet;
#X text 309 29 New Value (bang);
#X connect 0 0 13 0;
#X connect 0 0 15 0;
#X connect 4 0 7 0;
#X connect 5 0 0 0;
#X connect 6 0 8 0;
#X connect 7 0 9 0;
#X connect 7 0 11 1;
#X connect 8 0 19 0;
#X connect 9 0 10 0;
#X connect 9 0 14 0;
#X connect 9 0 15 0;
#X connect 10 0 11 0;
#X connect 11 0 12 0;
#X connect 12 0 15 1;
#X connect 13 0 14 0;
#X connect 14 0 17 0;
#X connect 15 0 16 0;
#X connect 16 0 20 0;
#X connect 16 0 8 1;
#X connect 17 0 18 0;
#X connect 18 0 6 1;
#X connect 19 0 3 0;
#X connect 20 0 21 0;
#X connect 21 0 17 1;
#X connect 25 0 6 0;
#X restore 240 163 pd centered_random_bells;
#N canvas 0 50 452 302 centered_random_bells 0;
#X floatatom 93 104 5 0 40000 0 - - -, f 5;
#X text 65 32 center freqency;
#X text 214 31 How Random;
#X obj 210 393 outlet;
#X obj 228 74 inlet;
#X obj 93 76 inlet;
#X obj 210 313 random;
#X floatatom 228 108 5 0 1 0 - - -, f 5;
#X obj 210 338 +;
#X obj 164 76 bng 15 250 50 0 empty empty empty 0 -6 0 8 -262144 -1
-1;
#X msg 180 98 1;
#X obj 180 122 -;
#X floatatom 180 147 5 0 0 0 - - -, f 5;
#X obj 93 230 * 2;
#X floatatom 93 259 5 0 0 0 - - -, f 5;
#X obj 164 172 *;
#X floatatom 164 200 5 0 0 0 - - -, f 5;
#X obj 148 272 -;
#X floatatom 148 299 5 0 0 0 - - -, f 5;
#X floatatom 210 366 5 0 0 0 - - -, f 5;
#X obj 164 225 * 2;
#X floatatom 164 251 5 0 0 0 - - -, f 5;
#X text 78 52 (anything);
#X text 227 52 (0-1);
#X text 194 416 Random Number;
#X obj 338 73 inlet;
#X text 309 29 New Value (bang);
#X connect 0 0 13 0;
#X connect 0 0 15 0;
#X connect 4 0 7 0;
#X connect 5 0 0 0;
#X connect 6 0 8 0;
#X connect 7 0 9 0;
#X connect 7 0 11 1;
#X connect 8 0 19 0;
#X connect 9 0 10 0;
#X connect 9 0 14 0;
#X connect 9 0 15 0;
#X connect 10 0 11 0;
#X connect 11 0 12 0;
#X connect 12 0 15 1;
#X connect 13 0 14 0;
#X connect 14 0 17 0;
#X connect 15 0 16 0;
#X connect 16 0 20 0;
#X connect 16 0 8 1;
#X connect 17 0 18 0;
#X connect 18 0 6 1;
#X connect 19 0 3 0;
#X connect 20 0 21 0;
#X connect 21 0 17 1;
#X connect 25 0 6 0;
#X restore 433 163 pd centered_random_bells;
#N canvas 289 383 456 306 fm_synth~ 0;
#X obj 59 122 osc~;
#X obj 11 122 sig~;
#X floatatom 11 54 5 0 0 0 - - -, f 5;
#X floatatom 59 54 5 0 0 0 - - -, f 5;
#X obj 12 187 osc~;
#X obj 12 163 +~;
#X obj 59 147 *~;
#X floatatom 107 54 5 0 0 0 - - -, f 5;
#X text 16 12 Fc;
#X text 62 12 Fm;
#X obj 11 76 * 1000;
#X obj 59 76 * 1000;
#X text 107 12 Imod;
#X text 159 12 All (0-1);
#X floatatom 11 101 5 0 0 0 - - -, f 5;
#X floatatom 59 101 5 0 0 0 - - -, f 5;
#X floatatom 107 101 5 0 0 0 - - -, f 5;
#X obj 12 211 outlet~;
#X obj 11 29 inlet;
#X obj 59 29 inlet;
#X obj 107 29 inlet;
#X obj 107 76 * 1000;
#X connect 0 0 6 0;
#X connect 1 0 5 0;
#X connect 2 0 10 0;
#X connect 3 0 11 0;
#X connect 4 0 17 0;
#X connect 5 0 4 0;
#X connect 6 0 5 1;
#X connect 7 0 21 0;
#X connect 10 0 14 0;
#X connect 11 0 15 0;
#X connect 14 0 1 0;
#X connect 15 0 0 0;
#X connect 16 0 6 1;
#X connect 18 0 2 0;
#X connect 19 0 3 0;
#X connect 20 0 7 0;
#X connect 21 0 16 0;
#X restore 207 274 pd fm_synth~;
#X text 240 34 Frequency (0-1);
#X text 50 35 Frequency (0-1);
#X text 426 33 Frequency (0-1);
#X connect 0 0 24 0;
#X connect 1 0 25 0;
#X connect 2 0 27 1;
#X connect 3 0 26 0;
#X connect 4 0 27 2;
#X connect 5 0 27 0;
#X connect 6 0 0 0;
#X connect 7 0 13 0;
#X connect 8 0 3 0;
#X connect 9 0 17 0;
#X connect 13 0 24 1;
#X connect 14 0 1 0;
#X connect 15 0 16 0;
#X connect 16 0 25 1;
#X connect 17 0 26 1;
#X connect 18 0 5 0;
#X connect 19 0 2 0;
#X connect 20 0 4 0;
#X connect 22 0 24 2;
#X connect 22 0 25 2;
#X connect 22 0 26 2;
#X connect 24 0 18 0;
#X connect 25 0 19 0;
#X connect 26 0 20 0;
#X connect 27 0 21 0;
#X restore 199 180 pd random_fm~;
#X obj 186 213 *~;
#N canvas 0 50 879 629 adsr______ 0;
#X obj 205 119 inlet;
#X obj 412 147 inlet;
#X text 201 94 trigger;
#X obj 205 147 sel 0;
#X obj 258 157 t b;
#X obj 134 335 f \$1;
#X obj 134 360 pack 0 \$2;
#X obj 476 148 inlet;
#X obj 403 281 del \$2;
#X obj 432 304 f \$4;
#X obj 466 379 pack 0 \$3;
#X obj 537 149 inlet;
#X obj 605 149 inlet;
#X obj 678 148 inlet;
#X msg 205 178 stop;
#X obj 576 301 pack 0 \$5;
#X text 410 124 level;
#X obj 466 355 * \$1;
#X text 31 306 ATTACK;
#X text 6 329 recall level;
#X text 6 349 and pack with;
#X text 7 369 attack time;
#X text 131 134 if zero;
#X text 132 151 release;
#X text 112 168 and cancel;
#X text 143 185 decay;
#X text 262 139 bang if attack;
#X text 245 272 on attack \, set a;
#X text 200 286 delay to go to sustain;
#X text 242 303 recall sustain value;
#X text 237 354 multiply by overall level;
#X text 281 375 pack with decay time;
#X text 569 327 on release ramp;
#X text 570 344 back to zero;
#X text 17 487 When you send this patch a nonzero trigger it schedules
a line~ to do an attack and decay \, and if zero \, it starts the release
ramp.;
#X obj 432 329 * 0.01;
#X text 16 539 Objects such as "f" and "pack" can be given dollar sign
arguments to initialize their contents from adsr's creation arguments.
Inlets are supplied to change them on the fly.;
#X text 505 613 Updated for Pd version 0.34;
#X text 86 4 ADSR ENVELOPE;
#X text 245 327 convert from percent;
#X text 76 24 Arguments: level \, attack time \, decay time \, sustain
level \, release time. A \, D \, and R are in msec and S is in percent.
This patch is used as an abstraction in 25.envelope.pd and others.
;
#X text 472 127 attack;
#X text 538 126 decay;
#X text 598 127 sustain;
#X text 675 127 release;
#X obj 458 429 line~;
#X obj 458 454 outlet~;
#X connect 0 0 3 0;
#X connect 1 0 5 1;
#X connect 1 0 17 1;
#X connect 3 0 14 0;
#X connect 3 0 15 0;
#X connect 3 1 4 0;
#X connect 4 0 5 0;
#X connect 4 0 8 0;
#X connect 5 0 6 0;
#X connect 6 0 45 0;
#X connect 7 0 6 1;
#X connect 7 0 8 1;
#X connect 8 0 9 0;
#X connect 9 0 35 0;
#X connect 10 0 45 0;
#X connect 11 0 10 1;
#X connect 12 0 9 1;
#X connect 13 0 15 1;
#X connect 14 0 8 0;
#X connect 15 0 45 0;
#X connect 17 0 10 0;
#X connect 35 0 17 0;
#X connect 45 0 46 0;
#X restore 43 164 pd adsr______;
#X msg 57 134 1;
#X msg 101 135 0.7;
#X obj 57 102 loadbang;
#X connect 0 0 27 2;
#X connect 1 0 27 3;
#X connect 2 0 27 5;
#X connect 6 0 25 0;
#X connect 7 0 25 2;
#X connect 8 0 25 4;
#X connect 9 0 25 1;
#X connect 10 0 25 3;
#X connect 11 0 25 5;
#X connect 18 0 22 0;
#X connect 18 0 25 6;
#X connect 21 0 23 1;
#X connect 22 0 27 0;
#X connect 23 0 24 0;
#X connect 24 0 27 0;
#X connect 25 0 26 1;
#X connect 26 0 17 0;
#X connect 27 0 26 0;
#X connect 28 0 27 1;
#X connect 29 0 27 4;
#X connect 30 0 28 0;
#X connect 30 0 29 0;
#X restore 21 407 pd bell~ 100 100 100 500 250 0.5 0.5 0.3 0.7;
#X obj 91 21 loadbang;
#X text 394 162 bell Envelope;
#X obj 352 8 loadbang;
#X msg 319 57 10;
#X msg 369 57 200;
#X msg 241 58 100;
#X obj 388 320 loadbang;
#X msg 385 346 0.9;
#X obj 460 320 loadbang;
#X msg 457 346 20;
#X connect 0 0 24 6;
#X connect 1 0 24 0;
#X connect 2 0 24 1;
#X connect 3 0 24 2;
#X connect 7 0 24 7;
#X connect 8 0 24 8;
#X connect 9 0 24 3;
#X connect 10 0 24 4;
#X connect 11 0 24 5;
#X connect 17 0 24 9;
#X connect 20 0 24 10;
#X connect 21 0 11 0;
#X connect 22 0 9 0;
#X connect 23 0 10 0;
#X connect 24 0 16 0;
#X connect 25 0 22 0;
#X connect 25 0 23 0;
#X connect 25 0 21 0;
#X connect 27 0 28 0;
#X connect 27 0 29 0;
#X connect 27 0 30 0;
#X connect 28 0 2 0;
#X connect 29 0 3 0;
#X connect 30 0 1 0;
#X connect 31 0 32 0;
#X connect 32 0 24 9;
#X connect 33 0 34 0;
#X connect 34 0 24 10;
#X restore 426 200 pd -bell_control1~;
#X msg 458 522 0.85;
#X msg 492 522 400;
#X obj 571 443 loadbang;
#X floatatom 474 220 5 0 0 0 - bellvol1 -, f 5;
#X floatatom 643 181 5 0 0 0 - bellvol2 -, f 5;
#X floatatom 310 418 5 0 0 0 - bellvol3 -, f 5;
#X obj 451 121 * 1000;
#X obj 631 83 * 1000;
#X obj 277 311 * 1000;
#X obj 473 574 throw~ outL;
#X obj 382 575 throw~ outR;
#X msg 511 445 1;
#X obj 21 31 declare -path patchmenu;
#X obj 24 51 loadbang;
#X obj 25 78 versioncheck 2;
#X obj 24 97 t b b;
#X obj 60 143 s enableSubMenu;
#X msg 20 125 0;
#X obj 15 166 patchmenu;
#N canvas 0 50 1532 791 mapping 0;
#X obj 14 5 r p1k1;
#X obj 14 96 i;
#X obj 192 91 i;
#X obj 192 0 r p1k2;
#X obj 379 75 * 100;
#X obj 379 96 i;
#X obj 379 5 r p1k3;
#X obj 599 101 i;
#X obj 599 10 r p1k4;
#X obj 17 229 * 100;
#X obj 17 250 i;
#X obj 195 224 * 100;
#X obj 195 245 i;
#X obj 382 229 * 100;
#X obj 382 250 i;
#X obj 604 253 i;
#X obj 17 159 r p2k1;
#X obj 195 154 r p2k2;
#X obj 382 159 r p2k3;
#X obj 604 162 r p2k4;
#X obj 12 390 * 100;
#X obj 12 411 i;
#X obj 190 385 * 100;
#X obj 190 406 i;
#X obj 377 390 * 100;
#X obj 377 411 i;
#X obj 599 393 * 100;
#X obj 599 414 i;
#X obj 15 555 * 100;
#X obj 15 576 i;
#X obj 193 550 * 100;
#X obj 193 571 i;
#X obj 380 555 * 100;
#X obj 380 576 i;
#X obj 602 558 * 100;
#X obj 602 579 i;
#X obj 12 320 r p3k1;
#X obj 190 315 r p3k2;
#X obj 377 320 r p3k3;
#X obj 599 323 r p3k4;
#X obj 81 76 s a1;
#X obj 259 71 s d1;
#X obj 446 76 s r1;
#X obj 666 81 s bellvol1;
#X msg 599 120 \; p1s4 4: bellvol1 \$1 %;
#X msg 379 115 \; p1s3 3: release \$1 %;
#X msg 192 110 \; p1s2 2: decay \$1 %;
#X msg 14 115 \; p1s1 1: attack \$1 %;
#X obj 697 191 s bellbang2;
#X obj 711 40 s bellbang1;
#X msg 17 269 \; p2s1 1: attack \$1 %;
#X obj 84 230 s a2;
#X obj 262 225 s d2;
#X obj 449 230 s r2;
#X msg 195 264 \; p2s2 2: decay \$1 %;
#X msg 604 272 \; p2s4 4: bell2vol \$1 %;
#X obj 444 391 s irandom1;
#X obj 447 556 s irandom2;
#X obj 257 386 s fmrandom1;
#X obj 260 551 s fmrandom2;
#X obj 79 391 s fcrandom1;
#X obj 82 556 s fcrandom2;
#X obj 666 394 s belltime1;
#X obj 669 559 s belltime2;
#X msg 12 430 \; p3s1 1: fcrandom1 \$1 %;
#X msg 190 425 \; p3s2 2: fmrandom1 \$1 %;
#X msg 377 430 \; p3s3 3: irandom1 \$1 %;
#X msg 599 433 \; p3s4 4: belltime1 \$1 %;
#X obj 15 485 r p4k1;
#X obj 193 480 r p4k2;
#X obj 380 485 r p4k3;
#X obj 602 488 r p4k4;
#X msg 15 595 \; p4s1 1: fcrandom2 \$1 %;
#X msg 193 590 \; p4s2 2: fmrandom2 \$1 %;
#X msg 380 595 \; p4s3 3: irandom2 \$1 %;
#X msg 602 598 \; p4s4 4: belltime2 \$1 %;
#X msg 382 269 \; p2s3 3: release \$1 %;
#X obj 671 233 s bellvol2;
#X obj 190 336 * 5000;
#X obj 12 341 * 5000;
#X obj 15 506 * 5000;
#X obj 193 501 * 5000;
#X obj 380 506 * 5000;
#X obj 595 361 * 30;
#X obj 377 341 * 5000;
#X obj 602 509 * 30;
#X obj 602 529 + 0;
#X obj 380 526 + 0;
#X obj 193 521 + 0;
#X obj 15 526 + 0;
#X obj 12 361 + 0;
#X obj 190 356 + 0;
#X obj 195 195 + 0;
#X obj 17 200 + 0;
#X obj 382 200 + 0;
#X obj 14 75 * 100;
#X obj 192 70 * 100;
#X obj 17 180 * 1;
#X obj 195 175 * 1;
#X obj 382 180 * 1;
#X obj 583 224 * 100;
#X obj 595 70 * 100;
#X connect 0 0 95 0;
#X connect 0 0 40 0;
#X connect 1 0 47 0;
#X connect 2 0 46 0;
#X connect 3 0 41 0;
#X connect 3 0 96 0;
#X connect 4 0 5 0;
#X connect 5 0 45 0;
#X connect 6 0 42 0;
#X connect 6 0 4 0;
#X connect 7 0 44 0;
#X connect 8 0 43 0;
#X connect 8 0 49 0;
#X connect 8 0 101 0;
#X connect 9 0 10 0;
#X connect 10 0 50 0;
#X connect 11 0 12 0;
#X connect 12 0 54 0;
#X connect 13 0 14 0;
#X connect 14 0 76 0;
#X connect 15 0 55 0;
#X connect 16 0 97 0;
#X connect 17 0 98 0;
#X connect 18 0 99 0;
#X connect 19 0 77 0;
#X connect 19 0 48 0;
#X connect 19 0 100 0;
#X connect 20 0 21 0;
#X connect 21 0 64 0;
#X connect 22 0 23 0;
#X connect 23 0 65 0;
#X connect 24 0 25 0;
#X connect 25 0 66 0;
#X connect 26 0 27 0;
#X connect 27 0 67 0;
#X connect 28 0 29 0;
#X connect 29 0 72 0;
#X connect 30 0 31 0;
#X connect 31 0 73 0;
#X connect 32 0 33 0;
#X connect 33 0 74 0;
#X connect 34 0 35 0;
#X connect 35 0 75 0;
#X connect 36 0 79 0;
#X connect 37 0 78 0;
#X connect 38 0 84 0;
#X connect 39 0 83 0;
#X connect 68 0 80 0;
#X connect 69 0 81 0;
#X connect 70 0 82 0;
#X connect 71 0 85 0;
#X connect 78 0 91 0;
#X connect 79 0 90 0;
#X connect 80 0 89 0;
#X connect 81 0 88 0;
#X connect 82 0 87 0;
#X connect 83 0 62 0;
#X connect 83 0 26 0;
#X connect 84 0 24 0;
#X connect 84 0 56 0;
#X connect 85 0 86 0;
#X connect 86 0 34 0;
#X connect 86 0 63 0;
#X connect 87 0 32 0;
#X connect 87 0 57 0;
#X connect 88 0 30 0;
#X connect 88 0 59 0;
#X connect 89 0 28 0;
#X connect 89 0 61 0;
#X connect 90 0 20 0;
#X connect 90 0 60 0;
#X connect 91 0 22 0;
#X connect 91 0 58 0;
#X connect 92 0 11 0;
#X connect 92 0 52 0;
#X connect 93 0 9 0;
#X connect 93 0 51 0;
#X connect 94 0 13 0;
#X connect 94 0 53 0;
#X connect 95 0 1 0;
#X connect 96 0 2 0;
#X connect 97 0 93 0;
#X connect 98 0 92 0;
#X connect 99 0 94 0;
#X connect 100 0 15 0;
#X connect 101 0 7 0;
#X restore 12 279 pd mapping;
#X obj 253 154 r notes;
#X obj 285 201 loadbang;
#X msg 12 197 \; screenLine1 1) Gen1 ADR & Vol \; screenLine2 2) Gen2
ADR & Vol \; screenLine3 3) Gen1 FM & Time \; screenLine4 4) Gen2 FM
& Time \; screenLine5 <-- HOME \;;
#X obj 426 6 loadbang;
#X obj 425 477 /~ 3;
#X msg 194 313 1;
#X msg 264 247 5;
#X text 226 131 bang when note is pressed;
#X text 566 299 This based on birds use stars by member \, Game \,
on puredata.info. https://puredata.info/Members/game This is 3 FM generators.
All 3 are on timers. "-bell_control3~" has a bang triggered by a note
on that will restart the metronome for that generator. Also it has
receives pitch info from the keyboard. Lots of weird FM sounds can
be achieved from the FM random settings. Some basic settings are loaded
on start. This is a work in progress...;
#X connect 0 0 23 0;
#X connect 1 0 22 0;
#X connect 2 0 21 0;
#X connect 3 0 20 0;
#X connect 4 0 20 0;
#X connect 5 0 20 0;
#X connect 6 0 7 0;
#X connect 7 0 0 0;
#X connect 8 0 9 0;
#X connect 9 0 2 0;
#X connect 10 0 17 0;
#X connect 10 0 32 0;
#X connect 11 0 12 0;
#X connect 12 0 1 0;
#X connect 13 0 22 1;
#X connect 14 0 23 1;
#X connect 15 0 14 0;
#X connect 15 0 30 0;
#X connect 16 0 13 0;
#X connect 16 0 31 0;
#X connect 17 0 21 1;
#X connect 18 0 19 0;
#X connect 19 0 33 0;
#X connect 19 0 34 0;
#X connect 20 0 48 0;
#X connect 21 0 3 0;
#X connect 22 0 4 0;
#X connect 23 0 5 0;
#X connect 24 0 19 1;
#X connect 25 0 19 2;
#X connect 26 0 24 0;
#X connect 26 0 25 0;
#X connect 26 0 35 0;
#X connect 27 0 5 1;
#X connect 28 0 4 1;
#X connect 29 0 3 1;
#X connect 30 0 7 1;
#X connect 31 0 12 1;
#X connect 32 0 9 1;
#X connect 35 0 18 1;
#X connect 37 0 38 0;
#X connect 38 0 39 0;
#X connect 39 0 41 0;
#X connect 39 1 40 0;
#X connect 41 0 42 0;
#X connect 42 0 46 0;
#X connect 44 0 8 0;
#X connect 45 0 50 0;
#X connect 45 0 50 0;
#X connect 45 0 49 0;
#X connect 47 0 6 0;
#X connect 47 0 11 0;
#X connect 48 0 18 0;
#X connect 49 0 3 1;
#X connect 50 0 32 0;
#X connect 50 0 32 0;
